<svg width="54" height="55" viewBox="0 0 54 55" fill="none" xmlns="http://www.w3.org/2000/svg">
<g clip-path="url(#clip0_4_45)">
<path d="M4.5 36.8188C6.66201 37.2597 8.64662 38.3267 10.2069 39.8869C11.7671 41.4471 12.8341 43.4317 13.275 45.5938M4.5 27.7063C9.06928 28.2144 13.3296 30.2624 16.5805 33.5132C19.8314 36.7641 21.8793 41.0245 22.3875 45.5938M4.5 18.5938V14.0938C4.5 12.9003 4.97411 11.7557 5.81802 10.9118C6.66193 10.0679 7.80653 9.59375 9 9.59375H45C46.1935 9.59375 47.3381 10.0679 48.182 10.9118C49.0259 11.7557 49.5 12.9003 49.5 14.0938V41.0938C49.5 42.2872 49.0259 43.4318 48.182 44.2757C47.3381 45.1196 46.1935 45.5938 45 45.5938H31.5" stroke="#F9004D" stroke-width="4.5" stroke-linecap="round" stroke-linejoin="round"/>
</g>
<defs>
<clipPath id="clip0_4_45">
<rect width="54" height="54" fill="white" transform="translate(0 0.59375)"/>
</clipPath>
</defs>
</svg>
