<svg width="16" height="17" viewBox="0 0 16 17" fill="none" xmlns="http://www.w3.org/2000/svg">
<g clip-path="url(#clip0_4_241)">
<path d="M4.13375 14.3127H1.23125V4.9658H4.13375V14.3127ZM2.68094 3.6908C1.75281 3.6908 1 2.92205 1 1.99393C1 1.54811 1.1771 1.12056 1.49234 0.805323C1.80757 0.490087 2.23513 0.312988 2.68094 0.312988C3.12675 0.312988 3.5543 0.490087 3.86954 0.805323C4.18478 1.12056 4.36188 1.54811 4.36188 1.99393C4.36188 2.92205 3.60875 3.6908 2.68094 3.6908ZM14.9969 14.3127H12.1006V9.76268C12.1006 8.6783 12.0787 7.28768 10.5916 7.28768C9.0825 7.28768 8.85125 8.4658 8.85125 9.68455V14.3127H5.95188V4.9658H8.73562V6.2408H8.77625C9.16375 5.50643 10.1103 4.73143 11.5225 4.73143C14.46 4.73143 15 6.6658 15 9.1783V14.3127H14.9969Z" fill="#C6C9D8" fill-opacity="0.75"/>
</g>
<defs>
<clipPath id="clip0_4_241">
<rect width="16" height="16" fill="white" transform="translate(0 0.3125)"/>
</clipPath>
</defs>
</svg>
