<svg width="16" height="17" viewBox="0 0 16 17" fill="none" xmlns="http://www.w3.org/2000/svg">
<g clip-path="url(#clip0_4_244)">
<path d="M8.00312 4.71885C6.01562 4.71885 4.41249 6.32197 4.41249 8.30947C4.41249 10.297 6.01562 11.9001 8.00312 11.9001C9.99062 11.9001 11.5937 10.297 11.5937 8.30947C11.5937 6.32197 9.99062 4.71885 8.00312 4.71885ZM8.00312 10.6438C6.71874 10.6438 5.66874 9.59697 5.66874 8.30947C5.66874 7.02197 6.71562 5.9751 8.00312 5.9751C9.29062 5.9751 10.3375 7.02197 10.3375 8.30947C10.3375 9.59697 9.28749 10.6438 8.00312 10.6438ZM12.5781 4.57197C12.5781 5.0376 12.2031 5.40947 11.7406 5.40947C11.275 5.40947 10.9031 5.03447 10.9031 4.57197C10.9031 4.10947 11.2781 3.73447 11.7406 3.73447C12.2031 3.73447 12.5781 4.10947 12.5781 4.57197ZM14.9562 5.42197C14.9031 4.3001 14.6469 3.30635 13.825 2.4876C13.0062 1.66885 12.0125 1.4126 10.8906 1.35635C9.73437 1.29072 6.26874 1.29072 5.11249 1.35635C3.99374 1.40947 2.99999 1.66572 2.17812 2.48447C1.35624 3.30322 1.10312 4.29697 1.04687 5.41885C0.981244 6.5751 0.981244 10.0407 1.04687 11.197C1.09999 12.3188 1.35624 13.3126 2.17812 14.1313C2.99999 14.9501 3.99062 15.2063 5.11249 15.2626C6.26874 15.3282 9.73437 15.3282 10.8906 15.2626C12.0125 15.2095 13.0062 14.9532 13.825 14.1313C14.6437 13.3126 14.9 12.3188 14.9562 11.197C15.0219 10.0407 15.0219 6.57822 14.9562 5.42197ZM13.4625 12.4376C13.2187 13.0501 12.7469 13.522 12.1312 13.7688C11.2094 14.1345 9.02187 14.0501 8.00312 14.0501C6.98437 14.0501 4.79374 14.1313 3.87499 13.7688C3.26249 13.5251 2.79062 13.0532 2.54374 12.4376C2.17812 11.5157 2.26249 9.32822 2.26249 8.30947C2.26249 7.29072 2.18124 5.1001 2.54374 4.18135C2.78749 3.56885 3.25937 3.09697 3.87499 2.8501C4.79687 2.48447 6.98437 2.56885 8.00312 2.56885C9.02187 2.56885 11.2125 2.4876 12.1312 2.8501C12.7437 3.09385 13.2156 3.56572 13.4625 4.18135C13.8281 5.10322 13.7437 7.29072 13.7437 8.30947C13.7437 9.32822 13.8281 11.5188 13.4625 12.4376Z" fill="#C6C9D8" fill-opacity="0.75"/>
</g>
<defs>
<clipPath id="clip0_4_244">
<rect width="16" height="16" fill="white" transform="translate(0 0.3125)"/>
</clipPath>
</defs>
</svg>
