<svg width="16" height="17" viewBox="0 0 16 17" fill="none" xmlns="http://www.w3.org/2000/svg">
<g clip-path="url(#clip0_4_247)">
<path d="M14.3553 5.0535C14.3655 5.19563 14.3655 5.33778 14.3655 5.47991C14.3655 9.81491 11.066 14.8098 5.03553 14.8098C3.17766 14.8098 1.45178 14.2718 0 13.3378C0.263969 13.3682 0.51775 13.3784 0.791875 13.3784C2.32484 13.3784 3.73603 12.8606 4.86294 11.9774C3.42131 11.9469 2.21319 11.0028 1.79694 9.70325C2 9.73369 2.20303 9.754 2.41625 9.754C2.71066 9.754 3.00509 9.71338 3.27919 9.64235C1.77666 9.33775 0.649719 8.01797 0.649719 6.42407V6.38347C1.08625 6.62713 1.59391 6.77941 2.13194 6.79969C1.24869 6.21085 0.670031 5.20579 0.670031 4.06872C0.670031 3.4596 0.832438 2.90122 1.11672 2.41391C2.73094 4.40375 5.15734 5.70322 7.87813 5.84538C7.82738 5.60172 7.79691 5.34794 7.79691 5.09413C7.79691 3.287 9.25884 1.81494 11.0761 1.81494C12.0202 1.81494 12.873 2.21088 13.472 2.85047C14.2131 2.70835 14.9238 2.43422 15.5533 2.0586C15.3096 2.82004 14.7918 3.45963 14.1116 3.86569C14.7715 3.79466 15.4111 3.61188 15.9999 3.3581C15.5533 4.00782 14.9949 4.58647 14.3553 5.0535Z" fill="#C6C9D8" fill-opacity="0.75"/>
</g>
<defs>
<clipPath id="clip0_4_247">
<rect width="16" height="16" fill="white" transform="translate(0 0.3125)"/>
</clipPath>
</defs>
</svg>
